<mxfile host="app.diagrams.net" agent="Mozilla/5.0 (Windows NT 10.0; Win64; x64) AppleWebKit/537.36 (KHTML, like Gecko) Chrome/130.0.0.0 Safari/537.36 Edg/130.0.0.0" version="24.8.0">
  <diagram name="Página-1" id="jKzU2qFJgsKS6pD1pg8x">
    <mxGraphModel dx="1489" dy="807" grid="1" gridSize="10" guides="1" tooltips="1" connect="1" arrows="1" fold="1" page="1" pageScale="1" pageWidth="827" pageHeight="1169" math="0" shadow="0">
      <root>
        <mxCell id="0" />
        <mxCell id="1" parent="0" />
        <mxCell id="AVF1j_iNjwQPH2Job04u-1" value="Consultoría IT" style="shape=umlFrame;whiteSpace=wrap;html=1;pointerEvents=0;" vertex="1" parent="1">
          <mxGeometry x="154" y="390" width="520" height="345" as="geometry" />
        </mxCell>
        <mxCell id="AVF1j_iNjwQPH2Job04u-2" value="User" style="shape=umlActor;verticalLabelPosition=bottom;verticalAlign=top;html=1;" vertex="1" parent="1">
          <mxGeometry x="384" y="310" width="30" height="60" as="geometry" />
        </mxCell>
        <mxCell id="AVF1j_iNjwQPH2Job04u-9" value="Create&lt;div&gt;Projects&lt;/div&gt;" style="ellipse;whiteSpace=wrap;html=1;" vertex="1" parent="1">
          <mxGeometry x="510" y="450" width="110" height="40" as="geometry" />
        </mxCell>
        <mxCell id="AVF1j_iNjwQPH2Job04u-10" value="Edit&lt;div&gt;&lt;div&gt;Projects&lt;/div&gt;&lt;/div&gt;" style="ellipse;whiteSpace=wrap;html=1;" vertex="1" parent="1">
          <mxGeometry x="510" y="500" width="110" height="40" as="geometry" />
        </mxCell>
        <mxCell id="AVF1j_iNjwQPH2Job04u-11" value="Delete&lt;div&gt;Projects&lt;/div&gt;" style="ellipse;whiteSpace=wrap;html=1;" vertex="1" parent="1">
          <mxGeometry x="510" y="550" width="110" height="40" as="geometry" />
        </mxCell>
        <mxCell id="AVF1j_iNjwQPH2Job04u-12" value="Added&lt;div&gt;Registers&lt;/div&gt;" style="ellipse;whiteSpace=wrap;html=1;" vertex="1" parent="1">
          <mxGeometry x="200" y="460" width="110" height="40" as="geometry" />
        </mxCell>
        <mxCell id="AVF1j_iNjwQPH2Job04u-13" value="Edited&amp;nbsp;&lt;div&gt;Registers&lt;/div&gt;" style="ellipse;whiteSpace=wrap;html=1;" vertex="1" parent="1">
          <mxGeometry x="200" y="510" width="110" height="40" as="geometry" />
        </mxCell>
        <mxCell id="AVF1j_iNjwQPH2Job04u-14" value="Deleted&lt;div&gt;Registers&lt;/div&gt;" style="ellipse;whiteSpace=wrap;html=1;" vertex="1" parent="1">
          <mxGeometry x="200" y="560" width="110" height="40" as="geometry" />
        </mxCell>
        <mxCell id="AVF1j_iNjwQPH2Job04u-15" value="Invoices&lt;div&gt;Creations&lt;/div&gt;" style="ellipse;whiteSpace=wrap;html=1;" vertex="1" parent="1">
          <mxGeometry x="510" y="600" width="110" height="40" as="geometry" />
        </mxCell>
        <mxCell id="AVF1j_iNjwQPH2Job04u-17" value="Assigning employees&amp;nbsp;&lt;div&gt;to projects&lt;/div&gt;" style="ellipse;whiteSpace=wrap;html=1;" vertex="1" parent="1">
          <mxGeometry x="344" y="530" width="146" height="50" as="geometry" />
        </mxCell>
      </root>
    </mxGraphModel>
  </diagram>
</mxfile>
